<svg width="49.974" height="55.506" viewBox="0 0 49.974 55.506" xmlns="http://www.w3.org/2000/svg"><g id="svgGroup" stroke-linecap="round" fill-rule="evenodd" font-size="9pt" stroke="#000000" stroke-width="0.25mm" fill="#000000" style="stroke:#000000;stroke-width:0.25mm;fill:#000000"><path d="M 33.549 0.071 Q 34.224 -0.154 35.574 0.334 Q 36.924 0.821 37.749 1.646 A 3.669 3.669 0 0 1 38.839 4.489 A 10.269 10.269 0 0 1 38.274 7.571 A 6.053 6.053 0 0 0 37.84 9.486 A 1.305 1.305 0 0 0 37.974 10.121 Q 38.349 10.796 40.449 11.921 A 6.466 6.466 0 0 1 43.569 14.459 A 2.348 2.348 0 0 1 43.749 14.959 A 2.643 2.643 0 0 1 43.814 15.558 Q 43.814 16.909 42.673 19.026 A 20.096 20.096 0 0 1 42.324 19.646 A 42.054 42.054 0 0 0 40.903 21.986 A 1.243 1.243 0 0 0 40.749 22.346 A 1.775 1.775 0 0 0 42.012 22.625 A 20.009 20.009 0 0 0 42.399 22.646 Q 43.899 22.646 46.449 23.771 A 8.021 8.021 0 0 1 48.819 25.14 A 0.56 0.56 0 0 1 48.999 25.496 A 2.621 2.621 0 0 1 48.38 26.668 A 27.28 27.28 0 0 1 46.524 28.834 A 27.202 27.202 0 0 1 42.477 32.541 A 11.787 11.787 0 0 1 42.249 32.696 A 36.635 36.635 0 0 0 38.423 35.702 A 76.772 76.772 0 0 0 38.386 35.734 Q 36.024 37.796 34.336 39.521 A 8.181 8.181 0 0 0 32.958 41.178 Q 32.854 41.4 32.949 41.471 Q 33.174 41.771 33.774 41.321 A 4.429 4.429 0 0 1 35.236 40.674 A 34.145 34.145 0 0 1 38.274 39.934 A 35.332 35.332 0 0 1 41.665 39.365 Q 42.57 39.275 42.924 39.371 Q 46.299 40.121 48.136 41.509 Q 49.974 42.896 49.974 44.546 A 7.951 7.951 0 0 1 48.977 47.552 A 24.238 24.238 0 0 1 48.961 47.584 Q 47.949 49.646 46.824 50.846 A 10.295 10.295 0 0 1 40.223 53.782 A 19.708 19.708 0 0 1 39.624 53.846 Q 36.924 54.146 34.974 54.934 Q 33.024 55.721 32.686 55.421 A 0.139 0.139 0 0 1 32.644 55.311 Q 32.644 55.064 33.151 54.417 A 23.132 23.132 0 0 1 34.674 52.721 A 117.341 117.341 0 0 0 37.986 49.055 Q 39.851 46.873 39.624 46.646 Q 39.399 46.346 37.599 46.946 Q 35.799 47.546 34.074 48.521 A 26.078 26.078 0 0 1 29.397 50.158 A 54.732 54.732 0 0 1 29.349 50.171 A 23.33 23.33 0 0 1 25.282 50.98 A 6.232 6.232 0 0 1 24.849 50.996 Q 23.199 50.996 22.261 49.796 Q 21.324 48.596 21.324 46.646 Q 21.324 45.146 21.511 44.584 A 1.331 1.331 0 0 1 21.763 44.157 A 3.751 3.751 0 0 1 22.674 43.421 A 18.514 18.514 0 0 0 24.924 41.676 Q 26.494 40.328 28.963 38.024 A 289.757 289.757 0 0 0 29.686 37.346 Q 35.274 32.096 36.474 30.596 A 6.27 6.27 0 0 0 37.518 28.85 Q 37.556 28.678 37.486 28.609 A 0.229 0.229 0 0 0 37.324 28.564 Q 36.75 28.564 34.449 29.621 Q 31.672 30.841 20.451 39.707 A 605.44 605.44 0 0 0 17.949 41.696 Q 6.174 50.921 2.574 50.396 Q 1.824 50.246 0.774 48.559 Q -0.276 46.871 0.099 46.121 Q 0.235 45.644 2.981 44.358 A 55.776 55.776 0 0 1 3.549 44.096 Q 6.075 43.005 12.317 38.991 A 323.164 323.164 0 0 0 16.486 36.259 A 307.225 307.225 0 0 0 22.781 31.971 Q 27.249 28.834 29.124 27.146 A 39.478 39.478 0 0 0 33.371 22.435 A 78.539 78.539 0 0 0 34.974 20.321 Q 38.274 15.821 37.824 15.446 A 0.463 0.463 0 0 0 37.468 15.294 Q 36.313 15.294 33.024 19.721 A 76.81 76.81 0 0 1 30.74 22.582 A 2.786 2.786 0 0 1 29.986 23.321 A 2.533 2.533 0 0 0 29.218 23.828 A 47.146 47.146 0 0 0 27.436 25.346 A 16.896 16.896 0 0 1 25.075 27.202 A 1.056 1.056 0 0 1 24.624 27.371 Q 23.874 27.371 22.974 26.546 Q 22.074 25.721 21.549 24.521 Q 20.799 22.796 19.749 22.796 Q 18.774 22.796 17.949 21.634 Q 17.124 20.471 17.124 19.121 Q 17.124 18.146 17.536 17.884 Q 17.949 17.621 19.599 17.396 A 18.932 18.932 0 0 0 25.07 15.621 A 38.491 38.491 0 0 0 25.749 15.296 Q 28.374 14.021 29.161 13.309 A 9.867 9.867 0 0 0 30.966 10.489 A 28.762 28.762 0 0 0 30.999 10.421 Q 32.574 7.196 32.574 7.046 Q 32.499 6.821 31.936 6.821 Q 31.374 6.821 30.474 7.046 Q 29.574 7.271 28.824 7.646 Q 23.199 9.971 21.999 5.096 A 3.404 3.404 0 0 1 21.814 4.195 A 0.366 0.366 0 0 1 21.886 3.934 A 0.509 0.509 0 0 1 22.235 3.849 A 4.56 4.56 0 0 1 23.124 3.971 Q 24.23 4.248 26.721 3.241 A 30.016 30.016 0 0 0 28.674 2.359 Q 32.724 0.371 33.549 0.071 Z"/></g></svg>